# xmcd
#
# Track frame offsets:
#	150
#	25638
#	59858
#	86244
#	111478
#	142894
#	176668
#	200542
#	221606
#	236882
#	256609
#	283871
#	318735
#
# Disc length: 4655 seconds
#
# Revision: 0
# Processed by: cddbd v1.5.2PL0 Copyright (c) Steve Scherf et al.
# Submitted via: EZCDAudioConverter 2.1.7.1
#
DISCID=cc122d0d
DTITLE=V/A - Eskimo Recordings Presents: The Pink Collection
DYEAR=1900
DGENRE=
TTITLE0=Holy Models - Swimming
TTITLE1=Satin Jackets - Olivia
TTITLE2=Brynjolfur - I Love You
TTITLE3=Made In Sane - Flying Circuits
TTITLE4=Mastercris featuring Novika - Most Valued
TTITLE5=Ichisan - Jugoton
TTITLE6=Martin Brodin - Lazise 1979
TTITLE7=Majestique - Must Get There
TTITLE8=Living Islands - Stars On The Sea [Blue Dub Version]
TTITLE9=Attar! featuring Cherry - The Fool
TTITLE10=Golden Fleece - Egg On Legs
TTITLE11=Copycat - Waste Of Space
TTITLE12=Kasper Bjørke - The Grey Area
EXTD=
EXTT0=
EXTT1=
EXTT2=
EXTT3=
EXTT4=
EXTT5=
EXTT6=
EXTT7=
EXTT8=
EXTT9=
EXTT10=
EXTT11=
EXTT12=
PLAYORDER=
